<?xml version="1.0" encoding="iso-8859-1"?>
<!-- Uploaded to: SVG Repo, www.svgrepo.com, Generator: SVG Repo Mixer Tools -->
<svg height="800px" width="800px" version="1.1" id="Layer_1" xmlns="http://www.w3.org/2000/svg" xmlns:xlink="http://www.w3.org/1999/xlink" 
	 viewBox="0 0 504 504" xml:space="preserve">
<g>
	<path style="fill:#F4AEA8;" d="M95.2,416.8c0,8.8-7.2,16-16,16s-16-7.2-16-16s7.2-16,16-16S95.2,408,95.2,416.8z"/>
	<circle style="fill:#F4AEA8;" cx="184.8" cy="186.4" r="16"/>
	<circle style="fill:#F4AEA8;" cx="329.6" cy="296" r="16"/>
	<path style="fill:#F4AEA8;" d="M466.4,128c0,8.8-7.2,16-16,16c-8.8,0-16-7.2-16-16s7.2-16,16-16S466.4,119.2,466.4,128z"/>
</g>
<path d="M498,504H4c-2.4,0-4-1.6-4-4V6c0-2.4,1.6-4,4-4s4,1.6,4,4v490h490c2.4,0,4,1.6,4,4S500.4,504,498,504z"/>
<path d="M79.6,436.8c-10.8,0-20-8.8-20-20s8.8-20,20-20c10.8,0,20,8.8,20,20S90.4,436.8,79.6,436.8z M79.6,404.8
	c-6.4,0-12,5.2-12,12c0,6.4,5.2,12,12,12c6.4,0,12-5.2,12-12C91.2,410.4,86,404.8,79.6,404.8z"/>
<path d="M184.8,206.4c-10.8,0-20-8.8-20-20s8.8-20,20-20c10.8,0,20,8.8,20,20S196,206.4,184.8,206.4z M184.8,174.8
	c-6.4,0-12,5.2-12,12s5.2,12,12,12s12-5.2,12-12S191.6,174.8,184.8,174.8z"/>
<path d="M329.6,316c-10.8,0-20-8.8-20-20c0-10.8,8.8-20,20-20s20,8.8,20,20C349.6,306.8,340.4,316,329.6,316z M329.6,284
	c-6.4,0-12,5.2-12,12c0,6.4,5.2,12,12,12s12-5.2,12-12S336,284,329.6,284z"/>
<path d="M450.4,148c-10.8,0-20-8.8-20-20c0-10.8,8.8-20,20-20s20,8.8,20,20C470.4,138.8,461.2,148,450.4,148z M450.4,116
	c-6.4,0-12,5.2-12,12c0,6.4,5.2,12,12,12s12-5.2,12-12C462.4,121.6,456.8,116,450.4,116z"/>
<path d="M496,494.8c0-2.4,2-4,4-4l0,0c2,0,4,2,4,4l0,0c0,2-2,4-4,4l0,0C498,498.8,496,497.2,496,494.8z M496,483.2c0-2,2-4,4-4l0,0
	c2,0,4,2,4,4l0,0c0,2.4-2,4-4,4l0,0C498,487.2,496,485.2,496,483.2z M496,471.2c0-2,2-4,4-4l0,0c2,0,4,2,4,4l0,0c0,2-2,4-4,4l0,0
	C498,475.2,496,473.6,496,471.2z M496,459.6c0-2,2-4,4-4l0,0c2,0,4,2,4,4l0,0c0,2.4-2,4-4,4l0,0C498,463.6,496,462,496,459.6z
	 M496,448c0-2,2-4,4-4l0,0c2,0,4,2,4,4l0,0c0,2-2,4-4,4l0,0C498,452,496,450,496,448z M496,436c0-2,2-4,4-4l0,0c2,0,4,2,4,4l0,0
	c0,2-2,4-4,4l0,0C498,440,496,438.4,496,436z M496,424.4c0-2,2-4,4-4l0,0c2,0,4,2,4,4l0,0c0,2.4-2,4-4,4l0,0
	C498,428.4,496,426.8,496,424.4z M496,412.8c0-2,2-4,4-4l0,0c2,0,4,2,4,4l0,0c0,2-2,4-4,4l0,0C498,416.8,496,414.8,496,412.8z
	 M496,401.2c0-2.4,2-4,4-4l0,0c2,0,4,1.6,4,4l0,0c0,2-2,4-4,4l0,0C498,405.2,496,403.2,496,401.2z M496,389.2c0-2.4,2-4,4-4l0,0
	c2,0,4,1.6,4,4l0,0c0,2.4-2,4-4,4l0,0C498,393.2,496,391.6,496,389.2z M496,377.6c0-2.4,2-4,4-4l0,0c2,0,4,1.6,4,4l0,0c0,2-2,4-4,4
	l0,0C498,381.6,496,379.6,496,377.6z M496,366c0-2.4,2-4,4-4l0,0c2,0,4,1.6,4,4l0,0c0,2.4-2,4-4,4l0,0C498,370,496,368,496,366z
	 M496,354c0-2,2-4,4-4l0,0c2,0,4,2,4,4l0,0c0,2.4-2,4-4,4l0,0C498,358,496,356.4,496,354z M496,342.4c0-2,2-4,4-4l0,0c2,0,4,2,4,4
	l0,0c0,2-2,4-4,4l0,0C498,346.4,496,344.4,496,342.4z M496,330.8c0-2.4,2-4,4-4l0,0c2,0,4,1.6,4,4l0,0c0,2-2,4-4,4l0,0
	C498,334.8,496,332.8,496,330.8z M496,318.8c0-2,2-4,4-4l0,0c2,0,4,2,4,4l0,0c0,2.4-2,4-4,4l0,0C498,322.8,496,321.2,496,318.8z
	 M496,307.2c0-2,2-4,4-4l0,0c2,0,4,2,4,4l0,0c0,2-2,4-4,4l0,0C498,311.2,496,309.2,496,307.2z M496,295.6c0-2.4,2-4,4-4l0,0
	c2,0,4,1.6,4,4l0,0c0,2-2,4-4,4l0,0C498,299.6,496,297.6,496,295.6z M496,283.6c0-2,2-4,4-4l0,0c2,0,4,2,4,4l0,0c0,2.4-2,4-4,4l0,0
	C498,287.6,496,286,496,283.6z M496,272c0-2.4,2-4,4-4l0,0c2,0,4,1.6,4,4l0,0c0,2-2,4-4,4l0,0C498,276,496,274.4,496,272z
	 M496,260.4c0-2.4,2-4,4-4l0,0c2,0,4,1.6,4,4l0,0c0,2-2,4-4,4l0,0C498,264.4,496,262.4,496,260.4z M496,248.4c0-2.4,2-4,4-4l0,0
	c2,0,4,1.6,4,4l0,0c0,2-2,4-4,4l0,0C498,252.4,496,250.8,496,248.4z M496,236.8c0-2.4,2-4,4-4l0,0c2,0,4,1.6,4,4l0,0c0,2.4-2,4-4,4
	l0,0C498,240.8,496,239.2,496,236.8z M496,225.2c0-2.4,2-4,4-4l0,0c2,0,4,1.6,4,4l0,0c0,2-2,4-4,4l0,0
	C498,229.2,496,227.2,496,225.2z M496,213.2c0-2,2-4,4-4l0,0c2,0,4,2,4,4l0,0c0,2.4-2,4-4,4l0,0C498,217.2,496,215.6,496,213.2z
	 M496,201.6c0-2.4,2-4,4-4l0,0c2,0,4,1.6,4,4l0,0c0,2-2,4-4,4l0,0C498,205.6,496,204,496,201.6z M496,190c0-2,2-4,4-4l0,0
	c2,0,4,2,4,4l0,0c0,2.4-2,4-4,4l0,0C498,194,496,192,496,190z M496,178.4c0-2.4,2-4,4-4l0,0c2,0,4,1.6,4,4l0,0c0,2-2,4-4,4l0,0
	C498,182.4,496,180.4,496,178.4z M496,166.4c0-2.4,2-4,4-4l0,0c2,0,4,1.6,4,4l0,0c0,2-2,4-4,4l0,0C498,170.4,496,168.8,496,166.4z
	 M496,154.8c0-2,2-4,4-4l0,0c2,0,4,2,4,4l0,0c0,2.4-2,4-4,4l0,0C498,158.8,496,157.2,496,154.8z M496,143.2c0-2.4,2-4,4-4l0,0
	c2,0,4,1.6,4,4l0,0c0,2-2,4-4,4l0,0C498,147.2,496,145.2,496,143.2z M496,131.2c0-2.4,2-4,4-4l0,0c2,0,4,1.6,4,4l0,0c0,2-2,4-4,4
	l0,0C498,135.2,496,133.6,496,131.2z M496,119.6c0-2.4,2-4,4-4l0,0c2,0,4,1.6,4,4l0,0c0,2.4-2,4-4,4l0,0
	C498,123.6,496,122,496,119.6z M496,108c0-2.4,2-4,4-4l0,0c2,0,4,1.6,4,4l0,0c0,2-2,4-4,4l0,0C498,112,496,110,496,108z M496,96
	c0-2.4,2-4,4-4l0,0c2,0,4,1.6,4,4l0,0c0,2.4-2,4-4,4l0,0C498,100,496,98.4,496,96z M496,84.4c0-2,2-4,4-4l0,0c2,0,4,2,4,4l0,0
	c0,2.4-2,4-4,4l0,0C498,88.4,496,86.8,496,84.4z M496,72.8c0-2,2-4,4-4l0,0c2,0,4,2,4,4l0,0c0,2.4-2,4-4,4l0,0
	C498,76.8,496,74.8,496,72.8z M496,61.2c0-2.4,2-4,4-4l0,0c2,0,4,1.6,4,4l0,0c0,2.4-2,4-4,4l0,0C498,65.2,496,63.2,496,61.2z
	 M496,49.2c0-2,2-4,4-4l0,0c2,0,4,2,4,4l0,0c0,2-2,4-4,4l0,0C498,53.2,496,51.6,496,49.2z M496,37.6c0-2,2-4,4-4l0,0c2,0,4,2,4,4
	l0,0c0,2.4-2,4-4,4l0,0C498,41.6,496,39.6,496,37.6z M496,26c0-2.4,2-4,4-4l0,0c2,0,4,1.6,4,4l0,0c0,2-2,4-4,4l0,0
	C498,30,496,28,496,26z M496,14c0-2,2-4,4-4l0,0c2,0,4,2,4,4l0,0c0,2-2,4-4,4l0,0C498,18,496,16.4,496,14z M494.4,4c0-2.4,2-4,4-4
	l0,0c2,0,4,1.6,4,4l0,0c0,2-2,4-4,4l0,0C496,8,494.4,6,494.4,4z M482.8,4c0-2.4,1.6-4,4-4l0,0c2,0,4,1.6,4,4l0,0c0,2-2,4-4,4l0,0
	C484.4,8,482.8,6,482.8,4z M470.8,4c0-2.4,1.6-4,4-4l0,0c2.4,0,4,1.6,4,4l0,0c0,2-1.6,4-4,4l0,0C472.8,8,470.8,6,470.8,4z M459.2,4
	c0-2.4,1.6-4,4-4l0,0c2,0,4,1.6,4,4l0,0c0,2-1.6,4-4,4l0,0C460.8,8,459.2,6,459.2,4z M447.6,4c0-2.4,1.6-4,4-4l0,0c2.4,0,4,1.6,4,4
	l0,0c0,2-1.6,4-4,4l0,0C449.2,8,447.6,6,447.6,4z M435.6,4c0-2.4,2-4,4-4l0,0c2.4,0,4,1.6,4,4l0,0c0,2-1.6,4-4,4l0,0
	C437.6,8,435.6,6,435.6,4z M424,4c0-2.4,2-4,4-4l0,0c2,0,4,1.6,4,4l0,0c0,2-2,4-4,4l0,0C426,8,424,6,424,4z M412.4,4c0-2.4,2-4,4-4
	l0,0c2,0,4,1.6,4,4l0,0c0,2-2,4-4,4l0,0C414,8,412.4,6,412.4,4z M400.4,4c0-2.4,2-4,4-4l0,0c2.4,0,4,1.6,4,4l0,0c0,2-1.6,4-4,4l0,0
	C402.4,8,400.4,6,400.4,4z M388.8,4c0-2.4,2-4,4-4l0,0c2,0,4,1.6,4,4l0,0c0,2-2,4-4,4l0,0C390.8,8,388.8,6,388.8,4z M377.2,4
	c0-2.4,2-4,4-4l0,0c2,0,4,1.6,4,4l0,0c0,2-2,4-4,4l0,0C378.8,8,377.2,6,377.2,4z M365.6,4c0-2.4,1.6-4,4-4l0,0c2.4,0,4,1.6,4,4l0,0
	c0,2-1.6,4-4,4l0,0C367.2,8,365.6,6,365.6,4z M353.6,4c0-2.4,1.6-4,4-4l0,0c2,0,4,1.6,4,4l0,0c0,2-2,4-4,4l0,0
	C355.6,8,353.6,6,353.6,4z M342,4c0-2.4,1.6-4,4-4l0,0c2,0,4,1.6,4,4l0,0c0,2-1.6,4-4,4l0,0C343.6,8,342,6,342,4z M330.4,4
	c0-2.4,2-4,4-4l0,0c2.4,0,4,1.6,4,4l0,0c0,2-1.6,4-4,4l0,0C332,8,330.4,6,330.4,4z M318.4,4c0-2.4,2-4,4-4l0,0c2.4,0,4,1.6,4,4l0,0
	c0,2-1.6,4-4,4l0,0C320.4,8,318.4,6,318.4,4z M306.8,4c0-2.4,1.6-4,4-4l0,0c2.4,0,4,1.6,4,4l0,0c0,2-1.6,4-4,4l0,0
	C308.4,8,306.8,6,306.8,4z M295.2,4c0-2.4,2-4,4-4l0,0c2,0,4,1.6,4,4l0,0c0,2-2,4-4,4l0,0C296.8,8,295.2,6,295.2,4z M283.2,4
	c0-2.4,2-4,4-4l0,0c2,0,4,1.6,4,4l0,0c0,2-2,4-4,4l0,0C285.2,8,283.2,6,283.2,4z M271.6,4c0-2.4,1.6-4,4-4l0,0c2,0,4,1.6,4,4l0,0
	c0,2-2,4-4,4l0,0C273.6,8,271.6,6,271.6,4z M260,4c0-2.4,2-4,4-4l0,0c2.4,0,4,1.6,4,4l0,0c0,2-1.6,4-4,4l0,0C261.6,8,260,6,260,4z
	 M248,4c0-2.4,2-4,4-4l0,0c2,0,4,1.6,4,4l0,0c0,2-2,4-4,4l0,0C250,8,248,6,248,4z M236.4,4c0-2.4,1.6-4,4-4l0,0c2.4,0,4,1.6,4,4l0,0
	c0,2-1.6,4-4,4l0,0C238.4,8,236.4,6,236.4,4z M224.8,4c0-2.4,1.6-4,4-4l0,0c2,0,4,1.6,4,4l0,0c0,2-2,4-4,4l0,0
	C226.4,8,224.8,6,224.8,4z M213.2,4c0-2.4,1.6-4,4-4l0,0c2.4,0,4,1.6,4,4l0,0c0,2-1.6,4-4,4l0,0C214.8,8,213.2,6,213.2,4z M201.2,4
	c0-2.4,1.6-4,4-4l0,0c2.4,0,4,1.6,4,4l0,0c0,2-1.6,4-4,4l0,0C203.2,8,201.2,6,201.2,4z M189.6,4c0-2.4,1.6-4,4-4l0,0
	c2.4,0,4,1.6,4,4l0,0c0,2-1.6,4-4,4l0,0C191.2,8,189.6,6,189.6,4z M178,4c0-2.4,1.6-4,4-4l0,0c2.4,0,4,1.6,4,4l0,0c0,2-1.6,4-4,4
	l0,0C179.6,8,178,6,178,4z M166,4c0-2.4,2-4,4-4l0,0c2,0,4,1.6,4,4l0,0c0,2-2,4-4,4l0,0C168,8,166,6,166,4z M154.4,4c0-2.4,2-4,4-4
	l0,0c2.4,0,4,1.6,4,4l0,0c0,2-1.6,4-4,4l0,0C156,8,154.4,6,154.4,4z M142.8,4c0-2.4,1.6-4,4-4l0,0c2,0,4,1.6,4,4l0,0c0,2-2,4-4,4
	l0,0C144.4,8,142.8,6,142.8,4z M130.8,4c0-2.4,2-4,4-4l0,0c2.4,0,4,1.6,4,4l0,0c0,2-1.6,4-4,4l0,0C132.8,8,130.8,6,130.8,4z
	 M119.2,4c0-2.4,1.6-4,4-4l0,0c2,0,4,1.6,4,4l0,0c0,2-2,4-4,4l0,0C121.2,8,119.2,6,119.2,4z M107.6,4c0-2.4,1.6-4,4-4l0,0
	c2,0,4,1.6,4,4l0,0c0,2-2,4-4,4l0,0C109.2,8,107.6,6,107.6,4z M95.6,4c0-2.4,1.6-4,4-4l0,0c2.4,0,4,1.6,4,4l0,0c0,2-1.6,4-4,4l0,0
	C97.6,8,95.6,6,95.6,4z M84,4c0-2.4,1.6-4,4-4l0,0c2,0,4,1.6,4,4l0,0c0,2-2,4-4,4l0,0C86,8,84,6,84,4z M72.4,4c0-2.4,1.6-4,4-4l0,0
	c2,0,4,1.6,4,4l0,0c0,2-2,4-4,4l0,0C74,8,72.4,6,72.4,4z M60.4,4c0-2.4,1.6-4,4-4l0,0c2.4,0,4,1.6,4,4l0,0c0,2-1.6,4-4,4l0,0
	C62.4,8,60.4,6,60.4,4z M48.8,4c0-2.4,2-4,4-4l0,0c2.4,0,4,1.6,4,4l0,0c0,2-1.6,4-4,4l0,0C50.8,8,48.8,6,48.8,4z M37.2,4
	c0-2.4,1.6-4,4-4l0,0c2.4,0,4,1.6,4,4l0,0c0,2-1.6,4-4,4l0,0C38.8,8,37.2,6,37.2,4z M25.6,4c0-2.4,2-4,4-4l0,0c2,0,4,1.6,4,4l0,0
	c0,2-2,4-4,4l0,0C27.2,8,25.6,6,25.6,4z M13.6,4c0-2.4,2-4,4-4l0,0c2.4,0,4,1.6,4,4l0,0c0,2-1.6,4-4,4l0,0C15.6,8,13.6,6,13.6,4z
	 M2,4c0-2.4,1.6-4,4-4l0,0c2,0,4,1.6,4,4l0,0c0,2-2,4-4,4l0,0C3.6,8,2,6,2,4z"/>
<path d="M248,498c0-2,1.6-4,4-4l0,0c2,0,4,2,4,4l0,0c0,2-2,4-4,4l0,0C249.6,502,248,500,248,498z M248,486c0-2,1.6-4,4-4l0,0
	c2,0,4,2,4,4l0,0c0,2-2,4-4,4l0,0C249.6,490,248,488,248,486z M248,474c0-2.4,1.6-4,4-4l0,0c2,0,4,1.6,4,4l0,0c0,2-2,4-4,4l0,0
	C249.6,478,248,476,248,474z M248,462c0-2,1.6-4,4-4l0,0c2,0,4,2,4,4l0,0c0,2-2,4-4,4l0,0C249.6,466,248,464,248,462z M248,450
	c0-2,1.6-4,4-4l0,0c2,0,4,2,4,4l0,0c0,2-2,4-4,4l0,0C249.6,454,248,452,248,450z M248,438c0-2,1.6-4,4-4l0,0c2,0,4,2,4,4l0,0
	c0,2-2,4-4,4l0,0C249.6,442,248,440,248,438z M248,426c0-2,1.6-4,4-4l0,0c2,0,4,2,4,4l0,0c0,2-2,4-4,4l0,0
	C249.6,430,248,428,248,426z M248,414c0-2,1.6-4,4-4l0,0c2,0,4,2,4,4l0,0c0,2-2,4-4,4l0,0C249.6,418,248,416,248,414z M248,402
	c0-2,1.6-4,4-4l0,0c2,0,4,2,4,4l0,0c0,2-2,4-4,4l0,0C249.6,406,248,404,248,402z M248,390c0-2,1.6-4,4-4l0,0c2,0,4,2,4,4l0,0
	c0,2-2,4-4,4l0,0C249.6,394,248,392,248,390z M248,378c0-2,1.6-4,4-4l0,0c2,0,4,2,4,4l0,0c0,2-2,4-4,4l0,0
	C249.6,382,248,380,248,378z M248,366c0-2,1.6-4,4-4l0,0c2,0,4,2,4,4l0,0c0,2-2,4-4,4l0,0C249.6,370,248,368,248,366z M248,354
	c0-2,1.6-4,4-4l0,0c2,0,4,2,4,4l0,0c0,2-2,4-4,4l0,0C249.6,358,248,356,248,354z M248,342c0-2,1.6-4,4-4l0,0c2,0,4,2,4,4l0,0
	c0,2-2,4-4,4l0,0C249.6,346,248,344,248,342z M248,330c0-2,1.6-4,4-4l0,0c2,0,4,2,4,4l0,0c0,2-2,4-4,4l0,0
	C249.6,334,248,332,248,330z M248,318c0-2,1.6-4,4-4l0,0c2,0,4,2,4,4l0,0c0,2-2,4-4,4l0,0C249.6,322,248,320,248,318z M248,306
	c0-2,1.6-4,4-4l0,0c2,0,4,2,4,4l0,0c0,2-2,4-4,4l0,0C249.6,310,248,308,248,306z M248,294c0-2,1.6-4,4-4l0,0c2,0,4,2,4,4l0,0
	c0,2-2,4-4,4l0,0C249.6,298,248,296,248,294z M248,282c0-2,1.6-4,4-4l0,0c2,0,4,2,4,4l0,0c0,2-2,4-4,4l0,0
	C249.6,286,248,284,248,282z M248,270c0-2,1.6-4,4-4l0,0c2,0,4,2,4,4l0,0c0,2-2,4-4,4l0,0C249.6,274,248,272,248,270z M248,258
	c0-2,1.6-4,4-4l0,0c2,0,4,2,4,4l0,0c0,2-2,4-4,4l0,0C249.6,262,248,260,248,258z M248,246c0-2.4,1.6-4,4-4l0,0c2,0,4,1.6,4,4l0,0
	c0,2-2,4-4,4l0,0C249.6,250,248,248,248,246z M248,234c0-2.4,1.6-4,4-4l0,0c2,0,4,1.6,4,4l0,0c0,2-2,4-4,4l0,0
	C249.6,238,248,236,248,234z M248,222c0-2.4,1.6-4,4-4l0,0c2,0,4,1.6,4,4l0,0c0,2-2,4-4,4l0,0C249.6,226,248,224,248,222z M248,210
	c0-2.4,1.6-4,4-4l0,0c2,0,4,1.6,4,4l0,0c0,2-2,4-4,4l0,0C249.6,214,248,212,248,210z M248,198c0-2.4,1.6-4,4-4l0,0c2,0,4,1.6,4,4
	l0,0c0,2-2,4-4,4l0,0C249.6,202,248,200,248,198z M248,186c0-2.4,1.6-4,4-4l0,0c2,0,4,1.6,4,4l0,0c0,2-2,4-4,4l0,0
	C249.6,190,248,188,248,186z M248,174c0-2.4,1.6-4,4-4l0,0c2,0,4,1.6,4,4l0,0c0,2-2,4-4,4l0,0C249.6,178,248,176,248,174z M248,162
	c0-2.4,1.6-4,4-4l0,0c2,0,4,1.6,4,4l0,0c0,2-2,4-4,4l0,0C249.6,166,248,164,248,162z M248,150c0-2.4,1.6-4,4-4l0,0c2,0,4,1.6,4,4
	l0,0c0,2-2,4-4,4l0,0C249.6,154,248,152,248,150z M248,138c0-2.4,1.6-4,4-4l0,0c2,0,4,1.6,4,4l0,0c0,2-2,4-4,4l0,0
	C249.6,142,248,140,248,138z M248,126c0-2.4,1.6-4,4-4l0,0c2,0,4,1.6,4,4l0,0c0,2-2,4-4,4l0,0C249.6,130,248,128,248,126z M248,114
	c0-2.4,1.6-4,4-4l0,0c2,0,4,1.6,4,4l0,0c0,2-2,4-4,4l0,0C249.6,118,248,116,248,114z M248,102c0-2.4,1.6-4,4-4l0,0c2,0,4,1.6,4,4
	l0,0c0,2-2,4-4,4l0,0C249.6,106,248,104,248,102z M248,90c0-2.4,1.6-4,4-4l0,0c2,0,4,1.6,4,4l0,0c0,2-2,4-4,4l0,0
	C249.6,94,248,92,248,90z M248,78c0-2.4,1.6-4,4-4l0,0c2,0,4,1.6,4,4l0,0c0,2-2,4-4,4l0,0C249.6,82,248,80,248,78z M248,66
	c0-2.4,1.6-4,4-4l0,0c2,0,4,1.6,4,4l0,0c0,2-2,4-4,4l0,0C249.6,70,248,68,248,66z M248,54c0-2.4,1.6-4,4-4l0,0c2,0,4,1.6,4,4l0,0
	c0,2-2,4-4,4l0,0C249.6,58,248,56,248,54z M248,42c0-2.4,1.6-4,4-4l0,0c2,0,4,1.6,4,4l0,0c0,2-2,4-4,4l0,0C249.6,46,248,44,248,42z
	 M248,30c0-2.4,1.6-4,4-4l0,0c2,0,4,1.6,4,4l0,0c0,2-2,4-4,4l0,0C249.6,34,248,32,248,30z M248,18c0-2.4,1.6-4,4-4l0,0
	c2,0,4,1.6,4,4l0,0c0,2-2,4-4,4l0,0C249.6,22,248,20,248,18z M248,6c0-2.4,1.6-4,4-4l0,0c2,0,4,1.6,4,4l0,0c0,2-2,4-4,4l0,0
	C249.6,10,248,8,248,6z"/>
<path d="M494,252c0-2.4,2-4,4-4l0,0c2,0,4,1.6,4,4l0,0c0,2-2,4-4,4l0,0C496,256,494,254,494,252z M482,252c0-2.4,2-4,4-4l0,0
	c2,0,4,1.6,4,4l0,0c0,2-2,4-4,4l0,0C484,256,482,254,482,252z M470,252c0-2.4,2-4,4-4l0,0c2,0,4,1.6,4,4l0,0c0,2-2,4-4,4l0,0
	C472,256,470,254,470,252z M458,252c0-2.4,2-4,4-4l0,0c2,0,4,1.6,4,4l0,0c0,2-2,4-4,4l0,0C460,256,458,254,458,252z M446,252
	c0-2.4,2-4,4-4l0,0c2,0,4,1.6,4,4l0,0c0,2-2,4-4,4l0,0C448,256,446,254,446,252z M434,252c0-2.4,2-4,4-4l0,0c2,0,4,1.6,4,4l0,0
	c0,2-2,4-4,4l0,0C436,256,434,254,434,252z M422,252c0-2.4,2-4,4-4l0,0c2,0,4,1.6,4,4l0,0c0,2-2,4-4,4l0,0C424,256,422,254,422,252z
	 M410,252c0-2.4,2-4,4-4l0,0c2,0,4,1.6,4,4l0,0c0,2-2,4-4,4l0,0C412,256,410,254,410,252z M398,252c0-2.4,2-4,4-4l0,0c2,0,4,1.6,4,4
	l0,0c0,2-2,4-4,4l0,0C400,256,398,254,398,252z M386,252c0-2.4,2-4,4-4l0,0c2,0,4,1.6,4,4l0,0c0,2-2,4-4,4l0,0
	C388,256,386,254,386,252z M374,252c0-2.4,2-4,4-4l0,0c2,0,4,1.6,4,4l0,0c0,2-2,4-4,4l0,0C376,256,374,254,374,252z M362,252
	c0-2.4,2-4,4-4l0,0c2,0,4,1.6,4,4l0,0c0,2-2,4-4,4l0,0C364,256,362,254,362,252z M350,252c0-2.4,2-4,4-4l0,0c2,0,4,1.6,4,4l0,0
	c0,2-2,4-4,4l0,0C352,256,350,254,350,252z M338,252c0-2.4,2-4,4-4l0,0c2,0,4,1.6,4,4l0,0c0,2-2,4-4,4l0,0C340,256,338,254,338,252z
	 M326,252c0-2.4,2-4,4-4l0,0c2,0,4,1.6,4,4l0,0c0,2-2,4-4,4l0,0C328,256,326,254,326,252z M314,252c0-2.4,2-4,4-4l0,0c2,0,4,1.6,4,4
	l0,0c0,2-2,4-4,4l0,0C316,256,314,254,314,252z M302,252c0-2.4,2-4,4-4l0,0c2,0,4,1.6,4,4l0,0c0,2-2,4-4,4l0,0
	C304,256,302,254,302,252z M290,252c0-2.4,2-4,4-4l0,0c2,0,4,1.6,4,4l0,0c0,2-2,4-4,4l0,0C292,256,290,254,290,252z M278,252
	c0-2.4,1.6-4,4-4l0,0c2,0,4,1.6,4,4l0,0c0,2-2,4-4,4l0,0C279.6,256,278,254,278,252z M266,252c0-2.4,2-4,4-4l0,0c2,0,4,1.6,4,4l0,0
	c0,2-2,4-4,4l0,0C268,256,266,254,266,252z M254,252c0-2.4,1.6-4,4-4l0,0c2,0,4,1.6,4,4l0,0c0,2-2,4-4,4l0,0
	C255.6,256,254,254,254,252z M242,252c0-2.4,1.6-4,4-4l0,0c2,0,4,1.6,4,4l0,0c0,2-2,4-4,4l0,0C243.6,256,242,254,242,252z M230,252
	c0-2.4,1.6-4,4-4l0,0c2,0,4,1.6,4,4l0,0c0,2-2,4-4,4l0,0C231.6,256,230,254,230,252z M218,252c0-2.4,1.6-4,4-4l0,0c2,0,4,1.6,4,4
	l0,0c0,2-2,4-4,4l0,0C219.6,256,218,254,218,252z M206,252c0-2.4,1.6-4,4-4l0,0c2,0,4,1.6,4,4l0,0c0,2-2,4-4,4l0,0
	C207.6,256,206,254,206,252z M194,252c0-2.4,1.6-4,4-4l0,0c2,0,4,1.6,4,4l0,0c0,2-2,4-4,4l0,0C195.6,256,194,254,194,252z M182,252
	c0-2.4,1.6-4,4-4l0,0c2,0,4,1.6,4,4l0,0c0,2-2,4-4,4l0,0C183.6,256,182,254,182,252z M170,252c0-2.4,1.6-4,4-4l0,0c2,0,4,1.6,4,4
	l0,0c0,2-2,4-4,4l0,0C171.6,256,170,254,170,252z M158,252c0-2.4,1.6-4,4-4l0,0c2,0,4,1.6,4,4l0,0c0,2-2,4-4,4l0,0
	C159.6,256,158,254,158,252z M146,252c0-2.4,1.6-4,4-4l0,0c2,0,4,1.6,4,4l0,0c0,2-2,4-4,4l0,0C147.6,256,146,254,146,252z M134,252
	c0-2.4,1.6-4,4-4l0,0c2,0,4,1.6,4,4l0,0c0,2-2,4-4,4l0,0C135.6,256,134,254,134,252z M122,252c0-2.4,1.6-4,4-4l0,0c2,0,4,1.6,4,4
	l0,0c0,2-2,4-4,4l0,0C123.6,256,122,254,122,252z M110,252c0-2.4,1.6-4,4-4l0,0c2,0,4,1.6,4,4l0,0c0,2-2,4-4,4l0,0
	C111.6,256,110,254,110,252z M98,252c0-2.4,1.6-4,4-4l0,0c2,0,4,1.6,4,4l0,0c0,2-2,4-4,4l0,0C99.6,256,98,254,98,252z M86,252
	c0-2.4,1.6-4,4-4l0,0c2,0,4,1.6,4,4l0,0c0,2-2,4-4,4l0,0C87.6,256,86,254,86,252z M74,252c0-2.4,1.6-4,4-4l0,0c2,0,4,1.6,4,4l0,0
	c0,2-2,4-4,4l0,0C75.6,256,74,254,74,252z M62,252c0-2.4,1.6-4,4-4l0,0c2,0,4,1.6,4,4l0,0c0,2-2,4-4,4l0,0C63.6,256,62,254,62,252z
	 M50,252c0-2.4,1.6-4,4-4l0,0c2,0,4,1.6,4,4l0,0c0,2-2,4-4,4l0,0C51.6,256,50,254,50,252z M38,252c0-2.4,1.6-4,4-4l0,0
	c2,0,4,1.6,4,4l0,0c0,2-2,4-4,4l0,0C39.6,256,38,254,38,252z M26,252c0-2.4,1.6-4,4-4l0,0c2,0,4,1.6,4,4l0,0c0,2-2,4-4,4l0,0
	C27.6,256,26,254,26,252z M14,252c0-2.4,1.6-4,4-4l0,0c2,0,4,1.6,4,4l0,0c0,2-2,4-4,4l0,0C15.6,256,14,254,14,252z M2,252
	c0-2.4,1.6-4,4-4l0,0c2,0,4,1.6,4,4l0,0c0,2-2,4-4,4l0,0C3.6,256,2,254,2,252z"/>
<path d="M86.4,406c-0.4,0-1.2,0-1.6-0.4c-2-0.8-2.8-3.2-2-5.2l84-184c0.8-2,3.2-2.8,5.2-2s2.8,3.2,2,5.2l-84,184
	C89.2,405.2,87.6,406,86.4,406z"/>
<path d="M302,279.2c-0.8,0-1.6-0.4-2.4-0.8l-104.4-79.2c-1.6-1.2-2-4-0.8-5.6s4-2,5.6-0.8L304.4,272c1.6,1.2,2,4,0.8,5.6
	C304.4,278.8,303.2,279.2,302,279.2z"/>
<path d="M338.8,287.2c-0.8,0-1.6-0.4-2.4-0.8c-1.6-1.2-2-3.6-0.8-5.6l92-128c1.2-1.6,3.6-2.4,5.6-0.8c1.6,1.2,2,3.6,0.8,5.6l-92,128
	C341.2,286.4,340,287.2,338.8,287.2z"/>
</svg>